<svg xmlns="http://www.w3.org/2000/svg" width="115.978" height="63.861" viewBox="0 0 115.978 63.861">
  <g id="logo01" transform="translate(-5402.147 174.244)">
    <path id="パス_592" data-name="パス 592" d="M23.47,82.588c-.035-.688-.079-1.427-.079-2.114V77.419a.469.469,0,0,1,.514-.469.457.457,0,0,1,.505.469v5.413c0,.548-.3.835-.74.835-.487,0-.731-.165-1.044-.87l-1.41-3.211a17.213,17.213,0,0,1-.635-1.67h-.07c.017.643.044,1.3.044,1.94V83.2a.457.457,0,0,1-.5.47.469.469,0,0,1-.514-.47V77.759a.705.705,0,0,1,.748-.809c.575,0,.879.235,1.166.9l1.218,2.819c.278.635.505,1.262.731,1.923Z" transform="translate(5384.379 -206.076)" fill="#002855"/>
    <path id="パス_593" data-name="パス 593" d="M45.028,81.061c0-.253-.052-.322-.313-.322h-1.01a.41.41,0,0,1-.461-.435c0-.278.182-.418.461-.418h1.4a.83.83,0,0,1,.9.931v2.358a.434.434,0,0,1-.479.487.426.426,0,0,1-.461-.479v-.113a1.9,1.9,0,0,1-1.506.627c-1.688,0-2.958-1.21-2.958-3.42s1.331-3.419,2.967-3.419a3.06,3.06,0,0,1,1.879.566.608.608,0,0,1,.323.522.5.5,0,0,1-.505.5.52.52,0,0,1-.409-.165,1.747,1.747,0,0,0-1.287-.5c-1.053,0-1.862.939-1.862,2.506s.783,2.515,1.862,2.515a1.593,1.593,0,0,0,1.462-.774Z" transform="translate(5377.242 -206.045)" fill="#002855"/>
    <path id="パス_594" data-name="パス 594" d="M53.413,77.567a.834.834,0,0,1,1.609-.009l1.888,5.395a.781.781,0,0,1,.044.235c0,.287-.235.479-.6.479a.432.432,0,0,1-.452-.331l-.454-1.414H52.936l-.463,1.414a.456.456,0,0,1-.461.331c-.356,0-.565-.192-.565-.453a.841.841,0,0,1,.044-.252Zm.748.383c-.122.461-.253.957-.383,1.366l-.564,1.763h1.964l-.565-1.78c-.13-.418-.269-.888-.391-1.349Z" transform="translate(5373.566 -206.076)" fill="#002855"/>
    <path id="パス_595" data-name="パス 595" d="M31.995,77.567a.834.834,0,0,1,1.609-.009l1.888,5.395a.781.781,0,0,1,.044.235c0,.287-.235.479-.6.479a.432.432,0,0,1-.452-.331l-.454-1.414H31.518l-.463,1.414a.456.456,0,0,1-.461.331c-.356,0-.565-.192-.565-.453a.841.841,0,0,1,.044-.252Zm.748.383c-.122.461-.253.957-.383,1.366L31.8,81.078H33.76l-.565-1.78c-.13-.418-.269-.888-.391-1.349Z" transform="translate(5380.825 -206.076)" fill="#002855"/>
    <path id="パス_596" data-name="パス 596" d="M66.5,82.588c-.035-.688-.079-1.427-.079-2.114V77.419a.469.469,0,0,1,.514-.469.457.457,0,0,1,.505.469v5.413c0,.548-.3.835-.74.835-.487,0-.731-.165-1.044-.87l-1.41-3.211a17.212,17.212,0,0,1-.635-1.67h-.07c.017.643.044,1.3.044,1.94V83.2a.457.457,0,0,1-.5.47.469.469,0,0,1-.514-.47V77.759a.705.705,0,0,1,.748-.809c.575,0,.879.235,1.166.9L65.7,80.665c.278.635.505,1.262.731,1.923Z" transform="translate(5369.797 -206.076)" fill="#002855"/>
    <path id="パス_597" data-name="パス 597" d="M73.035,80.269c0-2.219,1.314-3.411,2.9-3.411s2.9,1.192,2.9,3.411-1.314,3.429-2.9,3.429-2.9-1.2-2.9-3.429m4.7,0c0-1.549-.67-2.514-1.8-2.514s-1.8.965-1.8,2.514.67,2.532,1.8,2.532,1.8-.966,1.8-2.532" transform="translate(5366.251 -206.045)" fill="#002855"/>
    <path id="パス_598" data-name="パス 598" d="M66.728,65.529a.739.739,0,0,1-.389-1.395,13.11,13.11,0,0,0,2.1-1.827.76.76,0,0,1,.575-.259.716.716,0,0,1,.6,1.194,11.479,11.479,0,0,1-2.4,2.129.821.821,0,0,1-.489.158m5.984-.158c0,.417-.388.633-.791.633a.708.708,0,0,1-.791-.633V61.53H68.023c-1.439,0-1.942-.532-1.942-1.683V54.4c0-.417.4-.633.806-.633s.806.216.806.633v5.136c0,.489.186.647.7.647H77.6a.614.614,0,0,1,.59.676.621.621,0,0,1-.59.676H72.712ZM71.13,59.444c-1.252,0-1.8-.417-1.8-1.41V54.223c0-.992.547-1.41,1.8-1.41h3.61c1.252,0,1.8.417,1.8,1.41v3.812c0,1.179-.762,1.41-1.8,1.41Zm3.913-5.31c0-.273-.115-.374-.518-.374H71.346c-.4,0-.518.1-.518.374v.621h4.215Zm-4.215,2.492h4.215V55.588H70.828Zm3.7,1.87c.4,0,.518-.1.518-.374v-.664H70.828v.664c0,.345.23.374.518.374Zm2.791,5.393a.91.91,0,0,1,.475.748.825.825,0,0,1-.834.777.867.867,0,0,1-.532-.173,15.648,15.648,0,0,1-2.3-1.971.756.756,0,0,1-.23-.5.784.784,0,0,1,.82-.719.872.872,0,0,1,.618.259,16.857,16.857,0,0,0,1.985,1.583" transform="translate(5368.656 -197.897)" fill="#002855"/>
    <path id="パス_599" data-name="パス 599" d="M27.837,60.685a.765.765,0,0,1,.317.59.744.744,0,0,1-.273.547,12.471,12.471,0,0,1-1.554,1.165,8.706,8.706,0,0,0,2.848,1.266.791.791,0,0,1-.115,1.568.706.706,0,0,1-.245-.029A9.342,9.342,0,0,1,22.6,60.685H20.99v3.136c.633-.143,1.252-.3,1.784-.475a.686.686,0,0,1,.921.719.658.658,0,0,1-.475.633A28.5,28.5,0,0,1,18.2,65.821c-.043,0-.087.015-.13.015a.743.743,0,0,1-.719-.777.686.686,0,0,1,.633-.7c.475-.058.978-.144,1.5-.23V60.685H17.451a.622.622,0,0,1-.59-.676.614.614,0,0,1,.59-.676H19.48V54.845c0-1.136.446-1.6,1.884-1.6h6.215a.614.614,0,0,1,.59.676.622.622,0,0,1-.59.676H21.507c-.446,0-.532.115-.532.432v.417h5.84a.539.539,0,1,1,0,1.078h-5.84v.879h5.9a.539.539,0,1,1,0,1.078h-5.9v.85h8.531a.605.605,0,0,1,.59.676.613.613,0,0,1-.59.676Zm-3.683,0a8.032,8.032,0,0,0,1.094,1.41,8.159,8.159,0,0,0,1.525-1.28c.043-.043.1-.087.143-.13Z" transform="translate(5385.286 -198.044)" fill="#002855"/>
    <path id="パス_600" data-name="パス 600" d="M43.146,59.571c-1.267,0-1.784-.489-1.784-1.6V54.954c0-1.108.517-1.6,1.784-1.6h2.662c1.266,0,1.783.489,1.783,1.6v3.021c0,1.223-.618,1.6-1.783,1.6h-.59v1.166h1.726c.36,0,.547.345.547.69s-.187.691-.547.691H45.218v1.209c.676-.13,1.323-.274,1.913-.417a.822.822,0,0,1,.186-.029.678.678,0,0,1,.633.719.651.651,0,0,1-.475.647,37.985,37.985,0,0,1-5.826,1.122h-.1a.727.727,0,0,1-.7-.762.68.68,0,0,1,.619-.719c.747-.072,1.481-.187,2.229-.288V62.118H42.024c-.345,0-.532-.345-.532-.691s.187-.69.532-.69h1.669V59.571Zm-.362-4.92c-.217,0-.274.072-.274.3v1.081h1.24V54.651Zm-.274,2.3V58c0,.216.044.3.274.3h.966V56.952Zm2.65-.918h1.283V54.953c0-.23-.058-.3-.274-.3H45.161Zm0,2.272H46.17c.216,0,.274-.071.274-.3V56.952H45.161Zm5.294-.561c-.36-.36-.719-.69-1.064-.992a.717.717,0,0,1-.3-.561.657.657,0,0,1,.676-.619.851.851,0,0,1,.517.187c.087.058.159.13.245.187a7.755,7.755,0,0,0,.992-.762.223.223,0,0,0,.1-.158c0-.058-.072-.1-.216-.1h-2.69a.622.622,0,0,1-.59-.676.632.632,0,0,1,.59-.7h3.237c.964,0,1.439.489,1.439,1.064a1.521,1.521,0,0,1-.475,1.035,8.592,8.592,0,0,1-1.4,1.179.66.66,0,0,1,.1.087.709.709,0,0,1,.229.5.69.69,0,0,1-.1.331h.964c.949,0,1.424.417,1.424,1.021a1.619,1.619,0,0,1-.115.547,5.7,5.7,0,0,1-.906,1.539.78.78,0,0,1-.618.3.634.634,0,0,1-.547-1.05,6.206,6.206,0,0,0,.532-.82.2.2,0,0,0,.029-.086c0-.072-.058-.1-.188-.1h-.805v5.251c0,1.151-.5,1.669-1.7,1.669a5.945,5.945,0,0,1-1.007-.086.75.75,0,0,1-.648-.762.76.76,0,0,1,.748-.791.637.637,0,0,1,.158.015,4.156,4.156,0,0,0,.619.058c.187,0,.3-.072.3-.317V59.1h-1.54a.609.609,0,0,1-.589-.661.627.627,0,0,1,.589-.691Z" transform="translate(5377.159 -198.081)" fill="#002855"/>
    <path id="パス_601" data-name="パス 601" d="M117.214,59.17c-.655,0-1.216.02-1.714.051l.358-4.785H125.93l.51-4.631h-13.65l-1.072,14.168a28.952,28.952,0,0,1,4.7-.415c2.834,0,7.569.242,7.569,5.771,0,4.216-2.9,6.069-6.151,6.069A2.511,2.511,0,0,1,115,73.407a2.738,2.738,0,0,0-2.627-2.489,2.267,2.267,0,0,0-2.35,2.247c0,2.8,4.008,3.905,7.292,3.905,6.98,0,11.4-4.389,11.4-9.573,0-8.328-9.607-8.328-11.508-8.328" transform="translate(5353.716 -196.877)" fill="#002855"/>
    <path id="パス_602" data-name="パス 602" d="M153.53,48.969c4.6,0,9.434,4.008,9.434,13.926.034,10.056-4.942,13.892-9.434,13.892s-9.4-3.9-9.4-13.892c0-10.3,5.115-13.926,9.4-13.926m.058,4.616-1.548-.263-1.382,2.239.3.955-1.811,2.963.79,1.087-.955,1.778.56,1.251-1.285,1.778-.757-.2-.692,1.285,2.667,3.523-.625,3.325,2.568.494,3.062-2.436.625-3.885,1.679-2.864,2.107,1.415,1.646-.823-1.778-4.148.823-.527-.494-1.383-1.482.362-.725-1.679,3.161-2.732L158,52.17l-2.239,1.876-2.371.494Z" transform="translate(5342.159 -196.594)" fill="#002855"/>
    <path id="パス_603" data-name="パス 603" d="M98.079,76.234H93.01L93,51.4l-3.49.622-.138-1.425,8.708-1.624Z" transform="translate(5360.715 -196.594)" fill="#002855"/>
    <path id="パス_604" data-name="パス 604" d="M178.5,83.542a1.611,1.611,0,0,0-.409.068l-.059.015a1.615,1.615,0,0,1-.408.057c-.152,0-.406,0-.406-.584V79.9h.977a.876.876,0,1,0,0-1.751h-.977V76.717a1.012,1.012,0,0,0-2.018,0V78.15h-.367a.876.876,0,1,0,0,1.751h.367v3.082c0,1.65.685,2.385,2.22,2.385a3.943,3.943,0,0,0,1.291-.208.768.768,0,0,0,.511-.744.78.78,0,0,0-.723-.875" transform="translate(5332.065 -205.679)" fill="#002855"/>
    <path id="パス_605" data-name="パス 605" d="M189.22,80.576a3.091,3.091,0,0,0-.672-2.348,2.46,2.46,0,0,0-3.286-.088V75.451a1.012,1.012,0,0,0-2.018,0V84a1.011,1.011,0,0,0,2.018,0V81.121c0-1.078.51-1.8,1.268-1.8a.561.561,0,0,1,.484.218c.075.089.175.314.175,1.241v.42h0V84a.918.918,0,0,0,1.015.939l.033,0,.034,0a.412.412,0,0,0,.093-.013A.91.91,0,0,0,189.22,84V80.576Z" transform="translate(5328.904 -205.25)" fill="#002855"/>
    <path id="パス_606" data-name="パス 606" d="M113.767,93.384c-.078-.05-.427.374-.54.529s-.272.339-.4.5-.356.45-.449.564-.173.2-.243.283l-.6.684c-.217.25-.473.474-.717.721a12.212,12.212,0,0,1-3.691,2.44l-.541.217-.559.171-.281.085-.287.06c-.192.038-.383.086-.577.115a8.224,8.224,0,0,1-2.293.019,16.562,16.562,0,0,0,3.831-2.133c.28-.222.566-.425.816-.657l.379-.331c.063-.054.122-.11.18-.168l.134-.132a6.48,6.48,0,0,0,.446-.477c.217-.257.576-.7.651-.8s.483-.7.385-.765-.483.356-.654.541-.821.817-.951.945l-.212.208-.13.128c-.056.056-.113.111-.175.163l-.367.321c-.243.225-.52.421-.791.637a16.281,16.281,0,0,1-3.9,2.143c-.172.065-.35.121-.525.182-.089-.028-.177-.057-.266-.083-.362-.112-.738-.254-1.1-.377l-2.122-.736-1.983-.592c-.314-.091-.616-.189-.911-.266l-.856-.213c-1.094-.273-1.992-.5-2.629-.615l-.99-.2-.99-.194c-.639-.095-1.555-.245-2.672-.4a51.233,51.233,0,0,0-8.5-.344l-.6.023-.122.011c-1.058-.426-2.184-.84-3.351-1.205a26.283,26.283,0,0,0-4.711-1.078,17.49,17.49,0,0,0-2.354-.147c-.385-.005-.764.036-1.137.052l-.551.069-.272.035c-.045.007-.09.009-.134.02l-.093.019-.647.13c-.182.044-.328.088-.426.114-.721.2-1.657.645-1.6.8s1.03-.161,1.724-.342c.094-.024.234-.065.409-.107l.621-.124.089-.018c.042-.011.087-.013.13-.019l.261-.034.53-.066c.36-.015.726-.056,1.1-.05a17.015,17.015,0,0,1,2.288.144,25.8,25.8,0,0,1,4.629,1.059c.829.26,1.636.545,2.416.842l-.613.054c-.4.03-.8.106-1.2.156s-.8.1-1.19.18c-.783.157-1.559.288-2.3.5-.37.1-.741.173-1.092.3l-1,.323c-.463.155-1.222.51-1.569.669-.268.122-1.033.541-.955.681s.6-.114.824-.209,1.361-.518,1.857-.688.648-.208.982-.315.71-.191,1.073-.291c.725-.206,1.49-.335,2.261-.489.385-.08.781-.117,1.174-.178s.788-.125,1.187-.154l1.195-.106.37-.032c1.655.671,3.146,1.375,4.354,1.977l1.376.663c.417.181.776.348,1.078.463.6.246.945.362.945.362s.34.133.957.327a26.371,26.371,0,0,0,2.614.7,25.569,25.569,0,0,0,8.487.432,20.239,20.239,0,0,0,4.02-.925c.05.015.1.031.151.044l.606.116a8.714,8.714,0,0,0,2.471-.015c.2-.03.405-.081.607-.12l.3-.063.295-.089.586-.18.566-.227a12.675,12.675,0,0,0,3.835-2.533c.252-.255.516-.488.74-.745l.621-.7c.071-.083.13-.168.187-.241l.265-.349c.112-.148.424-.655.555-.89s.33-.652.251-.7m-16.119,7.15a25.1,25.1,0,0,1-8.327-.423,25.741,25.741,0,0,1-2.569-.688c-.607-.19-.941-.321-.941-.321s-.34-.114-.928-.356c-.3-.113-.649-.276-1.058-.454l-1.365-.658c-.984-.491-2.153-1.048-3.447-1.6a51.149,51.149,0,0,1,8.121.35c1.107.153,2.016.3,2.649.4l.982.192.982.2c.632.109,1.523.339,2.609.61l.849.212c.294.077.592.175.9.264l1.968.588,2.107.731c.253.087.5.176.76.264a20.026,20.026,0,0,1-3.3.7" transform="translate(5369.756 -211.571)" fill="#002855"/>
    <path id="パス_607" data-name="パス 607" d="M104.475,99.7c-.311-.091-.611-.188-.9-.264l-.85-.212c-1.085-.271-1.977-.5-2.608-.611l-.982-.2-.982-.192c-.634-.093-1.542-.243-2.649-.4a51.157,51.157,0,0,0-8.121-.35c1.294.553,2.463,1.111,3.447,1.6l1.364.658c.41.178.761.342,1.058.454.588.242.928.356.928.356s.333.131.941.321a26.059,26.059,0,0,0,2.569.688,25.138,25.138,0,0,0,8.327.423,20.026,20.026,0,0,0,3.3-.7c-.257-.088-.507-.177-.76-.263l-2.107-.732-1.968-.588" transform="translate(5361.39 -213.021)" fill="#4992c8"/>
    <path id="パス_608" data-name="パス 608" d="M128.088,30.825a7.554,7.554,0,0,1-5.121-.577c-3.191-1.71-4.5-4.375-5.086-8.265a15.159,15.159,0,0,1-1.019,4.2,7.007,7.007,0,0,0,1.363,1.031v.2a1.392,1.392,0,0,0-1.057.7,10.531,10.531,0,0,1-1.39-1.394l-.006,0-.034-.042c-.149-.184-.292-.373-.431-.563l-.024-.034a16.431,16.431,0,0,1-2.92-7.813,16.966,16.966,0,0,1-2.061,6.584,19.677,19.677,0,0,0,6.088,6.289l2.24,1.076c1.131.527,2.5,1.126,4.021,1.7a24.731,24.731,0,0,0,3.7-.278,10.261,10.261,0,0,0,4.3-3.1c-1.671.141-2,.182-2.362.192a.908.908,0,0,1-.2.086" transform="translate(5353.622 -186.194)" fill="#689930"/>
    <path id="パス_609" data-name="パス 609" d="M85.782,29.858q.686-.087,1.367-.133a16.248,16.248,0,0,0,3.7-4.8A16.89,16.89,0,0,1,88.7,18.28c-.22,1.589-.678,5.462-3.249,8.262a6.293,6.293,0,0,0,.636.6v.152a.85.85,0,0,0-.651.542,10.285,10.285,0,0,1-2.348-5.85c-.266,1.926-.927,6.724-5.918,8.585-.3.126-.539.2-.539.2l-.154.052a3.832,3.832,0,0,1-.381.116l-.486.122c-.165.041-.329.058-.463.082l-.387.061-.313.022-.413.028c-.1,0-.188,0-.275-.008a13.337,13.337,0,0,0,1.314.429,12.512,12.512,0,0,0,2.443.5,3.724,3.724,0,0,0,.938-.04,19.636,19.636,0,0,1,2.5-1.105,22.951,22.951,0,0,1,4.826-1.172" transform="translate(5366.006 -186.195)" fill="#bac300"/>
    <path id="パス_610" data-name="パス 610" d="M123.477,32.469c-.175.013-1.061.146-1.275.18-.074.012-.148.026-.222.04a2.612,2.612,0,0,1-.268.039l-.544.061c-.366.053-.744.051-1.125.076A15.318,15.318,0,0,1,118,32.8a26.269,26.269,0,0,1-4.475-.83c-.952-.252-1.881-.539-2.769-.844a27.1,27.1,0,0,0,3.606-.434c.808-.139,1.587-.354,2.345-.559.374-.121,1.074-.337,1.429-.471.826-.312,2.24-.986,2.174-1.192s-1.084.247-1.438.383-1.041.417-1.22.47l-1.082.35c-.744.2-1.507.411-2.3.548a25.609,25.609,0,0,1-4.77.456c-1.521-.569-2.891-1.168-4.022-1.7l-2.239-1.076a19.7,19.7,0,0,1-6.088-6.289,16.96,16.96,0,0,0,2.062-6.585,16.422,16.422,0,0,0,2.92,7.814l.023.034c.14.19.282.379.431.563l.034.042.007,0a10.412,10.412,0,0,0,1.39,1.394,1.389,1.389,0,0,1,1.056-.7v-.2a6.953,6.953,0,0,1-1.362-1.031,15.156,15.156,0,0,0,1.018-4.2c.583,3.89,1.895,6.554,5.087,8.265a7.55,7.55,0,0,0,5.121.577c.138-.039.662-.262-.295-.268a16.489,16.489,0,0,1-3.88-.754c-2.418-1-5.57-4.25-5.924-9.4a3.075,3.075,0,0,1,0-.354.95.95,0,0,1,.106-.379c.048-.065.08-.124.059-.166s-.087-.085-.3-.1l-.7-.053a6.9,6.9,0,0,1,.06,1.152,12.141,12.141,0,0,1-1,5q-.1-.113-.2-.23a15.563,15.563,0,0,1-1.006-1.354,15.925,15.925,0,0,1-2.506-7.715,3.912,3.912,0,0,1,0-.463,1.412,1.412,0,0,1,.13-.479c.03-.064.123-.149.088-.232s-.208-.112-.346-.128c-.253-.03-.963-.073-.963-.073a9.147,9.147,0,0,1,.073,1.507,15.525,15.525,0,0,1-1.773,7.511,23.779,23.779,0,0,1-2.792-10.17c-.02-.363,0-.409,0-.635a1.249,1.249,0,0,1,.2-.643c.175-.25-.07-.312-.372-.346-.245-.027-1.109-.111-1.109-.111a11.66,11.66,0,0,1,.086,1.916,23.912,23.912,0,0,1-2.009,10.053,15.922,15.922,0,0,1-2.5-7.707,3.914,3.914,0,0,1,0-.463A1.192,1.192,0,0,1,88.225,12c.051-.069.091-.137.069-.2s-.163-.114-.4-.132l-.912-.069A9.149,9.149,0,0,1,87.06,13.1a14.821,14.821,0,0,1-3.011,9.4,10.845,10.845,0,0,1-1.616-5.341,2.564,2.564,0,0,1,0-.354.956.956,0,0,1,.12-.4c.044-.065.066-.1.041-.149s-.136-.078-.279-.091-.717-.054-.717-.054a6.9,6.9,0,0,1,.058,1.152c0,4.625-2.08,7.665-4.494,9.169-.1.062-.245.128-.4.2l-.235.116-.241.1a5.671,5.671,0,0,1-.576.22l-.146.048a3.555,3.555,0,0,1-.362.109l-.46.114c-.155.04-.311.054-.437.078l-.366.058-.3.021-.389.028c-.356,0-.661.046-.9.044s-.795-.049-.843.074.526.235.816.275a6.283,6.283,0,0,0,.945.083l.413-.028L74,27.958l.387-.061c.135-.024.3-.04.462-.082l.486-.122a3.874,3.874,0,0,0,.381-.116l.154-.052s.243-.075.539-.2c4.992-1.86,5.653-6.659,5.919-8.585a10.283,10.283,0,0,0,2.348,5.85.85.85,0,0,1,.651-.543V23.9a6.516,6.516,0,0,1-.636-.6c2.57-2.8,3.029-6.673,3.248-8.262a16.909,16.909,0,0,0,2.148,6.644,16.237,16.237,0,0,1-3.7,4.8q-.679.048-1.367.133a22.962,22.962,0,0,0-4.826,1.172A19.066,19.066,0,0,0,76,29.9c-.154.1-.3.212-.445.315s-.289.208-.424.319l-.4.322-.335.294-.231.2c-.134.132-.137.123-.315.308-.469.49-1.144,1.382-1,1.48S73.669,32.5,74.186,32l.3-.3.223-.2.325-.285.391-.311c.131-.108.27-.209.413-.309s.281-.209.43-.305a18.616,18.616,0,0,1,4.085-2.058,22.1,22.1,0,0,1,4.229-1.074,17.282,17.282,0,0,0-3.626,2.162c-.28.234-.569.446-.82.686l-.379.345c-.063.056-.124.114-.182.174s-.089.091-.135.136l-.214.218c-.131.134-.239.24-.3.318a9.855,9.855,0,0,0-.639.756c-.173.249-.467.694-.312.757.108.044.655-.467,1.3-1.191.064-.073.167-.178.295-.307l.209-.212.132-.133c.056-.058.114-.115.176-.169l.37-.335c.244-.234.524-.439.8-.666a16.884,16.884,0,0,1,3.93-2.278c.421-.172.853-.327,1.291-.47a19.981,19.981,0,0,1,3.242.033,16.252,16.252,0,0,1,2.051.329,13.3,13.3,0,0,1,1.751.544c1.088.389,1.973.729,2.6.931l.986.31.986.31c.315.1.708.192,1.156.315s.957.262,1.519.392a36.815,36.815,0,0,0,8.649,1.043c1.243.463,2.586.907,3.986,1.277a26.734,26.734,0,0,0,4.557.844,15.8,15.8,0,0,0,2.1.062c.391-.026.778-.024,1.156-.079l.561-.063a2.528,2.528,0,0,0,.275-.04l.231-.041c.242-.046.461-.086.645-.122a4.537,4.537,0,0,0,.5-.136c.214-.063.576-.216.55-.333-.02-.086-.322-.075-.5-.063M93.609,13.278a23.478,23.478,0,0,0,5.076,13l-.237-.06a25.214,25.214,0,0,0-3.943-.632,22.72,22.72,0,0,0-4.719.128c-.385.048-.77.114-1.154.19,3.965-4.032,4.658-9.914,4.978-12.627m7.272,16.376c-.558-.128-1.058-.274-1.505-.388s-.833-.211-1.146-.311l-.977-.307-.978-.308c-.625-.2-1.5-.539-2.583-.924a13.859,13.859,0,0,0-1.813-.563,16.635,16.635,0,0,0-2.115-.34c-.429-.042-.871-.066-1.318-.078.466-.1.935-.185,1.4-.243a22.24,22.24,0,0,1,4.618-.126,24.8,24.8,0,0,1,3.868.619,24.171,24.171,0,0,1,2.6.782c.307.105.541.2.7.266l.246.1s.085.031.243.1l.688.3,2.469,1.187c.837.391,1.806.821,2.87,1.25a37.9,37.9,0,0,1-7.268-1.014" transform="translate(5366.769 -182.951)" fill="#002855"/>
    <path id="パス_611" data-name="パス 611" d="M103.281,27.931a25.279,25.279,0,0,1,3.943.632l.237.06a23.482,23.482,0,0,1-5.075-13c-.32,2.713-1.014,8.6-4.978,12.627.384-.076.77-.141,1.155-.19a22.712,22.712,0,0,1,4.719-.128" transform="translate(5357.992 -185.293)" fill="#e3b500"/>
    <path id="パス_612" data-name="パス 612" d="M111.493,37.095l-.688-.3c-.158-.069-.244-.1-.244-.1l-.245-.1c-.161-.063-.395-.161-.7-.266a23.926,23.926,0,0,0-2.6-.782,24.714,24.714,0,0,0-3.867-.619,22.185,22.185,0,0,0-4.617.126c-.47.058-.939.144-1.4.243.448.011.89.036,1.319.078a16.508,16.508,0,0,1,2.114.34,13.828,13.828,0,0,1,1.813.563c1.079.385,1.959.725,2.584.924l.978.307.978.307c.313.1.7.19,1.146.311s.947.26,1.5.388a37.963,37.963,0,0,0,7.268,1.014c-1.063-.429-2.032-.859-2.869-1.25l-2.469-1.187" transform="translate(5358.087 -191.814)" fill="#78bbe2"/>
  </g>
</svg>
